<svg width="66" height="64" viewBox="0 0 66 64" fill="none" xmlns="http://www.w3.org/2000/svg">
<path d="M11.8557 50.7244C11.2765 54.6671 10.8828 58.7 10.8828 62.3643H16.385C16.385 62.3643 17.2187 57.6344 18.6277 51.6583" stroke="#BB976D" stroke-width="2.2" stroke-miterlimit="10" stroke-linecap="round" stroke-linejoin="round"/>
<path d="M53.315 50.7244C53.8941 54.6671 54.2878 58.7 54.2878 62.3643H48.7856C48.7856 62.3643 47.9519 57.6344 46.543 51.6583" stroke="#BB976D" stroke-width="2.2" stroke-miterlimit="10" stroke-linecap="round" stroke-linejoin="round"/>
<path d="M59.7472 45.8772C61.9645 39.7168 63.2987 32.6505 64.0032 28.0727C64.0488 27.7749 64.0716 27.4771 64.0716 27.1844C64.0716 24.7314 62.5182 22.4976 60.1374 21.6817C56.9609 20.592 53.5323 22.4127 52.6365 25.6501C52.1119 27.5456 51.6191 29.7692 51.3479 32.112C51.0172 34.973 48.3678 36.9863 45.5246 36.5302C42.5445 36.0513 38.3024 35.6331 32.5855 35.6331C26.8685 35.6331 22.6264 36.0513 19.6463 36.5302C16.8031 36.9863 14.1537 34.973 13.823 32.112C13.5518 29.7692 13.059 27.5456 12.5344 25.6501C11.8147 23.0513 9.46307 21.3649 6.9201 21.3649C6.29545 21.3649 5.65939 21.4663 5.03346 21.6817C2.36759 22.5952 0.739435 25.2864 1.1677 28.0727C1.9406 33.0978 3.47372 41.1207 6.09778 47.6536C6.66162 49.0575 7.9122 50.0699 9.40352 50.3246C13.8293 51.0797 23.801 52.5977 32.5855 52.5977C41.3699 52.5977 51.3416 51.0797 55.7674 50.3246C56.6163 50.1801 57.3867 49.7886 57.9974 49.221" stroke="#BB976D" stroke-width="2.2" stroke-miterlimit="10" stroke-linecap="round" stroke-linejoin="round"/>
<path d="M6.77148 21.3682C6.77275 18.6022 6.85638 15.8362 7.02363 13.069C7.18074 10.4855 8.12089 8.11483 9.60967 6.19778" stroke="#BB976D" stroke-width="2.2" stroke-miterlimit="10" stroke-linecap="round" stroke-linejoin="round"/>
<path d="M12.3652 3.59526C14.1936 2.33328 16.3767 1.55405 18.7398 1.43874C27.9715 0.987675 37.2032 0.987675 46.4349 1.43874C52.7347 1.74664 57.7661 6.77556 58.1475 13.069C58.3148 15.8362 58.3984 18.6022 58.3997 21.3682" stroke="#BB976D" stroke-width="2.2" stroke-miterlimit="10" stroke-linecap="round" stroke-linejoin="round"/>
<path d="M13.7129 31.2627C15.4968 29.6241 19.6915 26.9578 28.4705 26.3084C29.743 26.2144 31.1119 26.1629 32.5837 26.1629C44.2098 26.1629 49.411 29.3859 51.4545 31.2627" stroke="#BB976D" stroke-width="2.2" stroke-miterlimit="10" stroke-linecap="round" stroke-linejoin="round"/>
</svg>
