<svg width="379" height="187" viewBox="0 0 379 187" fill="none" xmlns="http://www.w3.org/2000/svg">
<path d="M154.818 42.6996C161.04 40.3816 162.992 35.3796 163.358 30.3776C164.456 15.1276 150.914 2.92756 134.322 4.02557C106.75 7.19757 62.4641 35.8676 38.5521 56.7296C26.7181 67.0996 8.29614 85.8876 4.51414 99.5516C1.34214 115.534 30.8661 123.464 42.7001 126.758H42.5781L48.5561 128.344C56.1201 130.296 66.0021 132.858 74.6641 135.908C91.5001 127.856 101.382 124.074 109.922 120.78C114.802 118.95 119.438 117.242 125.05 114.802C125.05 114.802 125.172 114.802 125.538 114.68C126.636 114.314 127.368 114.802 127.49 115.778C127.612 116.754 126.88 117.974 125.782 118.462C116.022 122.488 110.166 124.684 105.042 126.636C97.7221 129.442 91.9881 131.516 79.3001 137.616C85.4001 140.178 90.8901 143.472 93.5741 147.01C94.9161 148.962 95.6481 151.28 95.6481 153.232C95.6481 162.138 82.7161 170.678 72.7121 175.314C61.0001 180.682 40.1381 186.904 26.2301 186.904C22.2041 186.904 18.6661 186.416 16.1041 185.318C12.9321 183.976 11.5901 181.902 11.5901 179.584C11.5901 175.924 14.8841 171.532 19.5201 167.506C29.5241 158.844 48.1901 148.596 68.8081 138.47C62.8301 136.518 56.2421 134.932 49.5321 133.102C35.0141 129.198 19.1541 125.05 9.27214 118.584C3.41614 114.558 0.000140613 110.166 0.000140613 104.31C0.000140613 100.406 1.46414 95.8916 4.39214 90.5236C21.2281 60.9996 70.6381 25.4976 101.992 10.6136C114.07 5.00157 127.246 -0.000432014 138.592 -0.000432014C142.74 -0.000432014 146.522 0.609567 150.06 1.95156C159.698 5.61157 167.628 15.7376 167.628 27.3276C167.628 29.1576 167.506 30.9876 167.018 32.9396C165.432 39.0396 161.772 44.0416 155.062 46.4816C153.72 46.8476 152.744 46.1156 152.744 45.1396C152.744 44.1636 153.598 43.0656 154.818 42.6996ZM74.4201 140.422C74.1761 140.3 73.9321 140.178 73.8101 140.178C45.9941 153.72 15.7381 170.312 15.7381 178.242C15.7381 179.95 17.3241 181.292 20.4961 182.146H20.3741C22.4481 182.634 24.8881 182.878 27.6941 182.878C41.6021 182.878 62.9521 176.534 75.1521 170.19C86.8641 164.09 91.2561 158.844 91.2561 154.452C91.2561 148.962 83.9361 144.448 76.2501 141.154L74.4201 140.422ZM132.113 108.702L131.503 109.312H131.625C127.843 114.192 121.865 127.368 125.159 130.662C128.087 133.468 138.335 122.976 142.361 118.828L144.435 116.754C145.533 115.778 147.119 114.192 148.827 112.85C151.999 110.41 155.659 108.58 156.879 110.654C157.245 111.264 157.123 112.85 156.879 114.558C156.879 114.68 156.757 114.924 156.757 115.046C156.513 117.242 156.025 119.438 155.659 121.512C155.171 123.83 154.805 125.904 154.805 127.368C154.805 128.954 155.293 129.93 156.757 129.93C159.563 129.93 165.785 126.392 178.717 117.242L179.571 116.632L180.669 115.778C181.767 115.168 182.987 115.168 183.475 115.9C184.085 116.754 183.475 118.096 182.377 118.828L178.351 121.634C170.665 127.124 161.149 133.956 155.659 133.956C152.365 133.956 150.291 131.028 150.779 124.684C150.901 123.22 151.389 121.024 151.877 118.95C152.243 117.12 152.609 115.534 152.731 114.314L152.487 114.436C150.413 115.656 147.485 118.462 144.313 121.512C136.749 128.832 127.477 137.738 122.353 134.322C120.645 133.102 120.035 131.272 120.035 128.832C120.035 122.366 124.915 112.484 128.575 107.604C129.429 106.75 130.893 106.14 131.625 106.506C132.479 106.994 132.479 107.848 132.113 108.702ZM191.267 99.7956C190.047 102.602 188.339 106.628 186.387 110.898C183.825 116.632 181.629 121.512 180.043 125.538C186.875 116.144 198.221 101.26 202.613 100.894C205.175 100.65 206.151 102.236 206.151 104.554C206.151 108.214 204.077 113.582 202.491 117.852C201.637 120.048 201.271 121.024 201.027 122.122C202.491 120.902 203.955 118.828 206.029 116.022C211.275 109.19 217.863 100.528 221.889 105.164H221.767C222.865 106.384 223.231 108.214 223.231 110.288C223.231 111.752 222.987 113.46 222.865 115.046C222.621 117.974 222.255 120.658 222.865 122.61C223.353 123.83 224.085 124.684 225.793 124.684C228.355 124.684 232.747 122.854 240.067 118.096C240.677 117.73 241.287 117.364 241.897 116.876L243.605 115.778C244.581 115.168 245.801 115.168 246.411 116.022C246.777 116.876 246.167 118.096 245.191 118.828C235.065 125.782 227.989 128.71 224.085 128.71C220.425 128.71 219.083 126.514 218.595 123.586C218.229 121.146 218.473 118.096 218.717 115.29C218.839 113.826 218.961 112.362 218.961 111.142C218.961 109.678 218.595 108.458 218.107 107.97C216.765 108.092 212.739 113.094 212.129 113.948L210.665 115.9C207.371 120.414 201.271 128.1 197.733 126.88C195.415 125.66 197.367 120.17 199.441 114.802C201.149 110.41 202.613 106.018 201.515 104.92C196.635 106.994 187.607 120.17 181.873 128.588C179.189 132.614 176.871 135.786 176.139 136.03C174.309 136.396 174.065 135.176 174.065 133.712C174.187 127.856 180.287 114.68 184.191 106.14L187.241 99.4296C187.607 98.3316 188.827 97.5996 189.925 97.5996C191.145 97.5996 191.755 98.5756 191.267 99.7956ZM254.054 99.7956C252.834 102.602 251.126 106.628 249.174 110.898C246.612 116.632 244.416 121.512 242.83 125.538C249.662 116.144 261.008 101.26 265.4 100.894C267.962 100.65 268.938 102.236 268.938 104.554C268.938 108.214 266.864 113.582 265.278 117.852C264.424 120.048 264.058 121.024 263.814 122.122C265.278 120.902 266.742 118.828 268.816 116.022C274.062 109.19 280.65 100.528 284.676 105.164H284.554C285.652 106.384 286.018 108.214 286.018 110.288C286.018 111.752 285.774 113.46 285.652 115.046C285.408 117.974 285.042 120.658 285.652 122.61C286.14 123.83 286.872 124.684 288.58 124.684C291.142 124.684 295.534 122.854 302.854 118.096C303.464 117.73 304.074 117.364 304.684 116.876L306.392 115.778C307.368 115.168 308.588 115.168 309.198 116.022C309.564 116.876 308.954 118.096 307.978 118.828C297.852 125.782 290.776 128.71 286.872 128.71C283.212 128.71 281.87 126.514 281.382 123.586C281.016 121.146 281.26 118.096 281.504 115.29C281.626 113.826 281.748 112.362 281.748 111.142C281.748 109.678 281.382 108.458 280.894 107.97C279.552 108.092 275.526 113.094 274.916 113.948L273.452 115.9C270.158 120.414 264.058 128.1 260.52 126.88C258.202 125.66 260.154 120.17 262.228 114.802C263.936 110.41 265.4 106.018 264.302 104.92C259.422 106.994 250.394 120.17 244.66 128.588C241.976 132.614 239.658 135.786 238.926 136.03C237.096 136.396 236.852 135.176 236.852 133.712C236.974 127.856 243.074 114.68 246.978 106.14L250.028 99.4296C250.394 98.3316 251.614 97.5996 252.712 97.5996C253.932 97.5996 254.542 98.5756 254.054 99.7956ZM318.793 115.29C315.499 116.022 312.327 116.266 310.375 116.266C308.789 118.096 307.569 119.926 306.715 121.512C305.739 123.464 305.129 125.416 305.129 126.88C305.129 129.564 307.203 131.516 311.351 130.906C315.499 130.052 322.941 126.026 329.651 122.488C335.141 119.438 340.753 116.51 344.169 115.534C345.511 115.29 346.365 115.778 346.243 116.998C345.877 118.34 343.681 119.56 342.217 120.17C342.095 120.17 341.973 120.292 341.851 120.292C338.801 121.756 335.507 123.464 332.091 125.416C324.893 129.442 317.451 133.712 310.741 134.81C304.031 135.908 300.981 132.858 300.981 128.222C300.981 125.904 301.591 123.342 302.933 120.78C305.739 115.046 313.669 107.604 320.013 104.92C323.917 103.456 328.675 104.798 328.065 108.702C327.211 112.24 322.697 114.436 318.793 115.29ZM314.035 112.118L314.157 112.606L314.767 112.118H314.035ZM320.501 108.702C318.793 109.434 316.719 110.654 314.767 112.118C318.183 111.752 322.819 110.898 323.917 109.19C323.917 108.336 321.721 108.214 320.501 108.702ZM353.284 98.5756L351.698 102.968C349.624 108.458 348.038 112.362 346.086 118.096C351.698 110.288 358.896 102.602 366.094 97.4776C369.266 95.1596 372.316 93.6956 374.634 93.6956C376.952 93.6956 378.416 95.2816 378.172 98.9416C378.172 99.4296 377.928 100.04 377.928 100.528C377.684 101.626 376.464 102.602 375.488 102.846C375 102.846 374.512 102.724 374.146 102.358C373.902 102.114 373.78 101.382 373.78 101.138C374.39 97.1116 372.072 97.4776 367.802 100.406C358.286 107.36 348.038 120.17 342.426 130.418C341.816 131.394 341.328 132.37 340.84 133.346C340.352 134.444 339.132 135.176 338.034 135.054C336.936 134.932 336.57 133.956 336.936 132.858C336.936 132.736 336.936 132.736 337.058 132.492C340.84 121.39 345.11 109.434 349.258 98.3316C349.624 97.3556 350.844 96.3796 351.942 96.3796C353.162 96.3796 353.65 97.4776 353.284 98.5756Z" fill="#BB976D"/>
</svg>
